<?xml version="1.0" encoding="utf-8"?>
<!-- Generator: Adobe Illustrator 21.1.0, SVG Export Plug-In . SVG Version: 6.00 Build 0)  -->
<svg version="1.1" id="Calque_1" xmlns="http://www.w3.org/2000/svg" xmlns:xlink="http://www.w3.org/1999/xlink" x="0px" y="0px"
	 viewBox="0 0 2369.5 732.9" style="enable-background:new 0 0 2369.5 732.9;" xml:space="preserve">
<style type="text/css">
	.st0{fill:none;}
	.st1{enable-background:new    ;}
	.st2{fill:#FFFFFF;}
	.st3{fill:#E3A365;}
	.st4{fill:#DF4E3B;}
	.st5{fill:#A6358A;}
	.st6{fill:#C11154;}
</style>
<rect x="853.7" y="-50.5" class="st0" width="3194.7" height="1062.5"/>
<g class="st1">
	<path class="st2" d="M850.2,603.1l99.6-429.3h241.3l-14.4,60.8H1005l-33.2,147.3h144.1l-15,60.8H957.3l-37,160.4H850.2z"/>
	<path class="st2" d="M1233.7,610c-25.5,0-44.4-7.6-56.7-22.9c-12.3-15.2-18.5-35.6-18.5-61.1c0-15.5,4.2-42.2,12.5-80.2l35.7-156
		h67.7l-34.5,151c-7.5,30.1-11.3,53.3-11.3,69.6c0,27.2,10.9,40.7,32.6,40.7c8.8,0,19.4-4.3,32-12.8c12.5-8.6,23-17.2,31.3-26
		l12.5-13.2l48.3-209.3h67.7L1381,603.1h-65.2l6.9-41.4c-3.3,3.8-7.7,8.3-13.2,13.5c-5.4,5.2-16,12.3-31.6,21.3
		C1262.2,605.5,1247.5,610,1233.7,610z"/>
	<path class="st3" d="M1550.8,610c-25.5,0-44.4-7.6-56.7-22.9c-12.3-15.2-18.5-35.6-18.5-61.1c0-15.5,4.2-42.2,12.5-80.2l35.7-156
		h67.7l-34.5,151c-7.5,30.1-11.3,53.3-11.3,69.6c0,27.2,10.9,40.7,32.6,40.7c8.8,0,19.4-4.3,32-12.8c12.5-8.6,23-17.2,31.3-26
		l12.5-13.2l48.3-209.3h67.7l-72.1,313.3h-65.2l6.9-41.4c-3.3,3.8-7.7,8.3-13.2,13.5c-5.4,5.2-16,12.3-31.6,21.3
		C1579.3,605.5,1564.6,610,1550.8,610z"/>
	<path class="st2" d="M1815.9,348.1l14.4-58.3h215.6l-13.8,56.4l-182.4,198.7h137.9l-15,58.3h-215l11.9-57l181.7-198H1815.9z"/>
	<path class="st2" d="M2117.3,506.9c0,14,4.8,25,14.4,32.9c9.6,7.9,21.5,11.9,35.7,11.9c30.1,0,59.7-2.5,89-7.5l16.3-3.1l-6.9,51.4
		c-38,11.7-76.5,17.5-115.3,17.5c-67.7,0-101.5-33.8-101.5-101.5c0-59.3,13.2-110.5,39.5-153.5c13.4-21.7,31.3-39.1,53.9-52
		c22.6-12.9,48.3-19.4,77.1-19.4c68.5,0,102.8,28.6,102.8,85.9c0,38.4-13.7,65.2-41,80.2c-27.4,15-72,22.6-133.8,22.6h-26.3
		C2118.6,481.3,2117.3,492.9,2117.3,506.9z M2158.7,420.8c35.1,0,59.9-3.8,74.6-11.3c14.6-7.5,21.9-20.7,21.9-39.5
		c0-20.9-13-31.3-38.9-31.3c-43.5,0-72.5,27.4-87.1,82.1H2158.7z"/>
</g>
<path class="st3" d="M362.5,378.1H53.3c-12.7,0-23-10.3-23-23V45.9c0-12.7,10.3-23,23-23h309.2c12.7,0,23,10.3,23,23v309.2
	C385.5,367.9,375.2,378.1,362.5,378.1z"/>
<path class="st4" d="M688.6,379.9H442.1c-12.7,0-23-10.3-23-23V110.5c0-12.7,10.3-23,23-23h246.5c12.7,0,23,10.3,23,23V357
	C711.5,369.7,701.3,379.9,688.6,379.9z"/>
<path class="st5" d="M365.3,703.3H118.6c-12.7,0-23-10.3-23-23V433.8c0-12.7,10.3-23,23-23h246.5c12.7,0,23,10.3,23,23v246.5
	C388.2,693,378,703.3,365.3,703.3z"/>
<path class="st6" d="M688.6,705.1H442.1c-12.7,0-23-10.3-23-23V435.6c0-12.7,10.3-23,23-23h246.5c12.7,0,23,10.3,23,23v246.5
	C711.5,694.8,701.3,705.1,688.6,705.1z"/>
<g>
	<path class="st2" d="M524.9,320.9L263.5,217c-68.9-29.8-68.9-29.8-47.3,41.8l72.4,273.7c29.8,79.7,37.9,47.7,57.2,17l45.3-93.8
		l84.9,94.4c5.8,6.6,13.5,9.9,21.1,10.4c7.8,0.5,15.6-2.3,22.2-8.1c13-11.8,14.1-31.1,2.3-44.1l-84.9-94.4l97.3-35.2
		C563,367.7,604.1,355.5,524.9,320.9z"/>
</g>
</svg>
